<?xml version="1.0" standalone="no"?>
<!DOCTYPE svg PUBLIC "-//W3C//DTD SVG 20010904//EN"
 "http://www.w3.org/TR/2001/REC-SVG-20010904/DTD/svg10.dtd">
<svg version="1.0" xmlns="http://www.w3.org/2000/svg"
 width="500.000000pt" height="500.000000pt" viewBox="0 0 500.000000 500.000000"
 preserveAspectRatio="xMidYMid meet">

<g transform="translate(0.000000,500.000000) scale(0.100000,-0.100000)"
fill="#000000" stroke="none">
<path d="M2268 4496 c-26 -7 -55 -19 -65 -26 -73 -56 -108 -108 -119 -179 l-6
-40 -207 -3 c-207 -3 -208 -3 -249 -30 -54 -36 -77 -84 -82 -170 0 -4 -98 -8
-217 -10 -197 -3 -222 -5 -263 -24 -56 -26 -103 -71 -132 -126 l-23 -43 -3
-1465 c-2 -1327 -1 -1470 14 -1517 20 -64 62 -115 122 -151 l47 -27 704 -3
c387 -1 708 1 711 5 4 4 11 41 14 81 l7 72 -674 0 c-704 0 -722 1 -760 43 -16
19 -17 104 -17 1478 l0 1457 31 26 31 26 202 0 203 0 7 -47 c8 -56 22 -78 60
-93 18 -6 270 -10 737 -10 793 0 759 -3 778 68 6 20 11 47 11 60 l0 22 205 0
205 0 32 -29 33 -29 3 -648 3 -647 79 116 80 116 0 529 c0 600 0 598 -74 674
-75 76 -101 83 -348 86 l-216 3 -7 50 c-9 64 -40 109 -95 137 -41 21 -57 22
-241 22 l-196 0 -7 41 c-15 94 -87 177 -177 203 -62 19 -78 19 -141 2z m160
-98 c42 -26 82 -94 82 -141 0 -55 -27 -113 -68 -144 -32 -25 -46 -28 -107 -28
-84 0 -122 23 -155 92 -26 55 -25 92 1 148 45 96 155 128 247 73z"/>
<path d="M1407 3332 l-27 -28 0 -225 c0 -221 0 -224 24 -254 l24 -30 220 -3
c244 -3 269 1 291 56 9 20 11 94 9 246 l-3 218 -30 24 c-30 24 -33 24 -256 24
l-225 0 -27 -28z m439 -52 l24 -10 -2 -197 -3 -198 -198 -3 -197 -2 -10 25
c-6 15 -10 101 -10 192 0 134 3 170 15 183 13 14 41 17 186 18 94 0 181 -3
195 -8z"/>
<path d="M1708 3131 c-29 -39 -58 -70 -63 -70 -6 -1 -29 17 -50 39 -47 48 -88
52 -93 9 -2 -20 13 -42 72 -105 72 -76 75 -78 89 -59 8 11 49 63 91 115 42 52
76 99 76 105 0 18 -23 35 -46 35 -17 0 -38 -20 -76 -69z"/>
<path d="M2177 3202 c-21 -23 -21 -27 -1 -46 14 -14 78 -16 559 -16 508 0 545
1 553 18 6 9 6 27 1 40 l-8 22 -544 0 c-514 0 -545 -1 -560 -18z"/>
<path d="M2170 2989 c-27 -49 -30 -49 561 -49 515 0 549 1 558 18 6 11 6 24 0
35 -9 16 -50 17 -559 17 -545 0 -549 0 -560 -21z"/>
<path d="M3913 2766 c-29 -22 -135 -175 -128 -187 4 -5 50 -39 103 -76 53 -37
166 -116 251 -175 123 -87 157 -106 166 -96 7 7 35 47 64 89 74 109 69 153
-26 259 -56 62 -151 131 -228 166 -74 32 -171 42 -202 20z"/>
<path d="M1411 2554 l-31 -26 0 -228 c0 -227 0 -229 24 -257 l24 -28 218 -3
c240 -3 262 0 289 51 14 28 16 60 13 250 l-3 219 -30 24 c-30 24 -33 24 -252
24 l-221 0 -31 -26z m454 -259 l0 -200 -195 -3 c-174 -2 -196 -1 -207 15 -18
24 -18 364 -1 381 9 9 64 12 208 10 l195 -3 0 -200z"/>
<path d="M1708 2351 c-29 -39 -58 -70 -63 -70 -6 -1 -29 17 -50 39 -49 50 -88
53 -93 7 -3 -23 9 -41 72 -105 41 -42 76 -74 79 -72 67 84 165 208 171 217 12
20 -12 53 -39 53 -18 0 -37 -17 -77 -69z"/>
<path d="M3595 2325 c-82 -119 -217 -312 -300 -430 -82 -118 -196 -281 -252
-362 -56 -82 -124 -179 -151 -218 -27 -38 -75 -108 -107 -155 -32 -47 -75
-107 -95 -135 -49 -67 -56 -92 -80 -280 -11 -88 -28 -217 -37 -287 -9 -69 -13
-133 -10 -142 10 -24 54 -19 111 13 51 28 148 80 341 181 55 29 114 63 130 75
17 12 102 126 190 251 87 126 181 261 208 299 142 205 519 746 547 785 126
179 170 245 170 256 0 10 -472 348 -502 359 -8 3 -73 -81 -163 -210z m256 76
l24 -19 -74 -109 c-78 -113 -481 -691 -608 -873 -41 -58 -121 -172 -178 -255
-57 -82 -108 -155 -113 -161 -24 -27 -62 -95 -62 -110 0 -56 92 -128 157 -122
43 4 0 -53 401 523 99 143 191 274 204 292 13 17 58 83 101 145 211 306 350
504 362 517 12 12 18 12 40 -3 17 -11 25 -24 22 -34 -2 -10 -110 -168 -239
-352 -129 -184 -281 -402 -338 -485 -89 -128 -174 -251 -315 -453 -146 -209
-143 -202 -121 -253 5 -12 -25 -32 -141 -94 -81 -43 -163 -87 -181 -97 -18
-10 -37 -18 -42 -18 -5 0 -32 17 -60 38 -57 42 -54 18 -25 222 7 52 16 125 20
163 l7 67 32 0 c18 0 39 6 48 13 15 12 129 172 293 412 49 72 105 153 124 180
372 532 553 790 581 833 19 28 40 52 46 52 7 0 22 -9 35 -19z"/>
<path d="M2177 2422 c-21 -23 -21 -27 -1 -46 14 -14 78 -16 559 -16 508 0 545
1 553 18 10 19 5 43 -12 54 -6 4 -252 8 -547 8 -507 0 -537 -1 -552 -18z"/>
<path d="M2170 2210 c-8 -15 -6 -24 10 -40 20 -20 31 -20 543 -20 287 0 532 3
545 6 19 5 23 12 20 38 l-3 31 -552 3 c-542 2 -552 2 -563 -18z"/>
<path d="M1450 1799 c-14 -6 -35 -20 -47 -31 -23 -21 -23 -26 -23 -249 0 -226
0 -228 24 -256 l24 -28 218 -3 c236 -3 259 0 287 47 14 25 17 60 17 236 0 301
5 295 -287 294 -103 0 -199 -5 -213 -10z m415 -284 l0 -200 -195 -3 c-174 -2
-196 -1 -207 15 -16 21 -18 345 -3 374 10 18 21 19 208 17 l197 -3 0 -200z"/>
<path d="M1708 1571 c-29 -39 -58 -70 -63 -70 -6 -1 -29 17 -50 39 -49 50 -88
53 -93 7 -3 -23 9 -41 72 -105 72 -74 76 -76 90 -57 8 11 48 62 90 113 78 96
85 109 64 130 -28 28 -56 13 -110 -57z"/>
<path d="M2176 1641 c-14 -15 -15 -24 -6 -40 11 -21 16 -21 399 -21 l388 0 27
40 26 40 -408 0 c-390 0 -410 -1 -426 -19z"/>
<path d="M2169 1428 c-10 -18 -8 -24 11 -40 20 -16 47 -18 326 -18 l303 0 25
33 c15 19 26 37 26 40 0 4 -153 7 -340 7 -339 0 -339 0 -351 -22z"/>
<path d="M3728 1230 c-21 -30 -56 -80 -77 -110 -35 -48 -40 -62 -41 -110 -1
-116 -27 -155 -110 -166 -48 -6 -45 -4 -134 -137 l-19 -29 119 4 c129 4 154
12 219 70 70 61 79 92 83 288 2 96 2 191 0 210 l-3 35 -37 -55z"/>
</g>
</svg>
